<svg width="162" height="154" viewBox="0 0 162 154" fill="none" xmlns="http://www.w3.org/2000/svg">
<circle cx="36" cy="36" r="36" transform="matrix(-1 0 0 1 77 82)" fill="black"/>
<path d="M40.7032 0L-1.52588e-05 70.5H81.4064L40.7032 0Z" fill="black"/>
<rect x="93" y="1" width="69" height="69" fill="black"/>
<path d="M133.475 84.9433C130.035 81.6334 124.595 81.686 121.219 85.1035C117.79 88.5753 117.791 94.204 121.219 97.6752L132.02 108.61H101.781C96.9313 108.61 93.0001 112.59 93 117.5C93 122.409 96.9313 126.389 101.781 126.389H132.021L121.219 137.325C117.791 140.796 117.79 146.425 121.219 149.897C124.648 153.368 130.209 153.367 133.638 149.897L159.428 123.786C162.857 120.314 162.857 114.686 159.428 111.215L133.637 85.1029L133.475 84.9433Z" fill="black"/>
</svg>
