<svg width="528" height="190" viewBox="0 0 528 190" fill="none" xmlns="http://www.w3.org/2000/svg">
<path d="M37.2547 1.3728L0.000190735 65.8996H74.5093L37.2547 1.3728Z" fill="#F7B719"/>
<rect x="86.4077" y="2.74579" width="63.1539" height="63.1539" fill="#EE442A"/>
<circle cx="32.9498" cy="32.9498" r="32.9498" transform="matrix(-1 0 0 1 227.36 0.948914)" fill="#0168B5"/>
<path d="M276.304 4.06677C273.155 1.03733 268.176 1.08549 265.087 4.21346C261.948 7.39107 261.949 12.5429 265.087 15.72L274.972 25.7284H247.295C242.857 25.7284 239.258 29.3713 239.258 33.8648C239.258 38.3584 242.856 42.0012 247.295 42.0012H274.973L265.087 52.0102C261.949 55.1874 261.948 60.3391 265.087 63.5168C268.225 66.6944 273.315 66.6935 276.453 63.5168L300.058 39.6181C303.197 36.4407 303.197 31.2896 300.058 28.1121L276.452 4.21284L276.304 4.06677Z" fill="black"/>
<path d="M13.248 166.9V155.86H29.992C34.776 155.86 38.824 154.909 42.136 153.008C45.5093 151.045 48.0547 148.377 49.772 145.004C51.5507 141.63 52.44 137.766 52.44 133.412C52.44 129.118 51.5813 125.346 49.864 122.096C48.1467 118.845 45.6013 116.3 42.228 114.46C38.916 112.62 34.8373 111.7 29.992 111.7H13.524V100.66H29.992C37.4133 100.66 43.884 102.009 49.404 104.708C54.924 107.345 59.1867 111.148 62.192 116.116C65.2587 121.022 66.792 126.849 66.792 133.596C66.792 140.342 65.2587 146.23 62.192 151.26C59.1253 156.228 54.832 160.092 49.312 162.852C43.8533 165.55 37.444 166.9 30.084 166.9H13.248ZM4.6 166.9V100.66H18.768V166.9H4.6ZM96.9594 167.82C91.746 167.82 87.2074 166.808 83.3434 164.784C79.4794 162.698 76.474 159.816 74.3274 156.136C72.242 152.456 71.1994 148.224 71.1994 143.44C71.1994 138.594 72.242 134.362 74.3274 130.744C76.474 127.064 79.4487 124.212 83.2514 122.188C87.054 120.102 91.47 119.06 96.4994 119.06C101.345 119.06 105.546 120.041 109.103 122.004C112.661 123.966 115.421 126.696 117.383 130.192C119.346 133.688 120.327 137.797 120.327 142.52C120.327 143.501 120.297 144.421 120.235 145.28C120.174 146.077 120.082 146.844 119.959 147.58H79.2954V138.472H108.827L106.435 140.128C106.435 136.325 105.515 133.534 103.675 131.756C101.897 129.916 99.4434 128.996 96.3154 128.996C92.6967 128.996 89.8754 130.222 87.8514 132.676C85.8887 135.129 84.9074 138.809 84.9074 143.716C84.9074 148.5 85.8887 152.057 87.8514 154.388C89.8754 156.718 92.8807 157.884 96.8674 157.884C99.0754 157.884 100.977 157.516 102.571 156.78C104.166 156.044 105.362 154.848 106.159 153.192H119.131C117.598 157.73 114.961 161.318 111.219 163.956C107.539 166.532 102.786 167.82 96.9594 167.82ZM147.109 167.82C140.239 167.82 134.781 166.44 130.733 163.68C126.685 160.92 124.477 157.117 124.109 152.272H136.437C136.743 154.357 137.786 155.952 139.565 157.056C141.405 158.098 143.919 158.62 147.109 158.62C149.991 158.62 152.077 158.221 153.365 157.424C154.714 156.565 155.389 155.369 155.389 153.836C155.389 152.67 154.99 151.781 154.193 151.168C153.457 150.493 152.077 149.941 150.053 149.512L142.509 147.948C136.927 146.782 132.818 145.034 130.181 142.704C127.543 140.312 126.225 137.245 126.225 133.504C126.225 128.965 127.973 125.438 131.469 122.924C134.965 120.348 139.841 119.06 146.097 119.06C152.291 119.06 157.229 120.317 160.909 122.832C164.589 125.285 166.613 128.72 166.981 133.136H154.653C154.407 131.541 153.549 130.345 152.077 129.548C150.605 128.689 148.519 128.26 145.821 128.26C143.367 128.26 141.527 128.628 140.301 129.364C139.135 130.038 138.553 131.02 138.553 132.308C138.553 133.412 139.043 134.301 140.025 134.976C141.006 135.589 142.631 136.141 144.901 136.632L153.365 138.38C158.087 139.361 161.645 141.201 164.037 143.9C166.49 146.537 167.717 149.665 167.717 153.284C167.717 157.884 165.907 161.472 162.289 164.048C158.731 166.562 153.671 167.82 147.109 167.82ZM174.516 166.9V119.98H188.316V166.9H174.516ZM174.056 113.724V98.8197H188.776V113.724H174.056ZM220.484 186.68C213.982 186.68 208.677 185.3 204.568 182.54C200.52 179.78 198.128 176.038 197.392 171.316H210.456C210.946 172.481 211.989 173.37 213.584 173.984C215.24 174.597 217.325 174.904 219.84 174.904C224.01 174.904 227.046 174.106 228.948 172.512C230.849 170.917 231.8 168.433 231.8 165.06V154.848L232.536 155.032C231.922 158.466 230.144 161.196 227.2 163.22C224.256 165.182 220.606 166.164 216.252 166.164C212.081 166.164 208.432 165.213 205.304 163.312C202.237 161.349 199.845 158.62 198.128 155.124C196.41 151.628 195.552 147.518 195.552 142.796C195.552 138.012 196.441 133.841 198.22 130.284C199.998 126.726 202.482 123.966 205.672 122.004C208.922 120.041 212.694 119.06 216.988 119.06C221.404 119.06 224.992 120.102 227.752 122.188C230.573 124.273 232.229 127.125 232.72 130.744L232.076 130.836V119.98H245.6V164.876C245.6 171.622 243.361 176.928 238.884 180.792C234.406 184.717 228.273 186.68 220.484 186.68ZM221.036 155.584C224.286 155.584 226.924 154.48 228.948 152.272C230.972 150.002 231.984 146.782 231.984 142.612C231.984 138.441 230.941 135.252 228.856 133.044C226.832 130.774 224.164 129.64 220.852 129.64C217.662 129.64 215.025 130.774 212.94 133.044C210.916 135.313 209.904 138.533 209.904 142.704C209.904 146.874 210.916 150.064 212.94 152.272C215.025 154.48 217.724 155.584 221.036 155.584ZM256.633 166.9V119.98H270.157V131.02H270.433V166.9H256.633ZM289.293 166.9V137.828C289.293 135.252 288.619 133.32 287.269 132.032C285.981 130.744 284.08 130.1 281.565 130.1C279.419 130.1 277.487 130.59 275.769 131.572C274.113 132.553 272.795 133.902 271.813 135.62C270.893 137.337 270.433 139.361 270.433 141.692L269.237 130.376C270.771 126.941 273.009 124.212 275.953 122.188C278.959 120.102 282.639 119.06 286.993 119.06C292.207 119.06 296.193 120.532 298.953 123.476C301.713 126.358 303.093 130.253 303.093 135.16V166.9H289.293ZM312.674 166.9V100.66H344.138C349.045 100.66 353.246 101.518 356.742 103.236C360.3 104.953 363.029 107.345 364.93 110.412C366.893 113.478 367.874 117.066 367.874 121.176C367.874 125.285 366.893 128.904 364.93 132.032C362.968 135.16 360.208 137.613 356.65 139.392C353.154 141.109 348.984 141.968 344.138 141.968H323.898V131.112H343.402C346.653 131.112 349.168 130.222 350.946 128.444C352.786 126.604 353.706 124.212 353.706 121.268C353.706 118.324 352.786 115.962 350.946 114.184C349.168 112.405 346.653 111.516 343.402 111.516H326.842V166.9H312.674ZM389.329 167.82C386.017 167.82 383.165 167.114 380.773 165.704C378.442 164.232 376.664 162.3 375.437 159.908C374.21 157.454 373.597 154.725 373.597 151.72V119.98H387.397V149.052C387.397 151.628 388.041 153.56 389.329 154.848C390.617 156.136 392.426 156.78 394.757 156.78C396.842 156.78 398.682 156.289 400.277 155.308C401.872 154.326 403.129 152.977 404.049 151.26C405.03 149.481 405.521 147.457 405.521 145.188L406.717 156.504C405.184 159.877 402.945 162.606 400.001 164.692C397.057 166.777 393.5 167.82 389.329 167.82ZM405.797 166.9V155.86H405.521V119.98H419.321V166.9H405.797ZM448.714 167.82C441.845 167.82 436.386 166.44 432.338 163.68C428.29 160.92 426.082 157.117 425.714 152.272H438.042C438.349 154.357 439.392 155.952 441.17 157.056C443.01 158.098 445.525 158.62 448.714 158.62C451.597 158.62 453.682 158.221 454.97 157.424C456.32 156.565 456.994 155.369 456.994 153.836C456.994 152.67 456.596 151.781 455.798 151.168C455.062 150.493 453.682 149.941 451.658 149.512L444.114 147.948C438.533 146.782 434.424 145.034 431.786 142.704C429.149 140.312 427.83 137.245 427.83 133.504C427.83 128.965 429.578 125.438 433.074 122.924C436.57 120.348 441.446 119.06 447.702 119.06C453.897 119.06 458.834 120.317 462.514 122.832C466.194 125.285 468.218 128.72 468.586 133.136H456.258C456.013 131.541 455.154 130.345 453.682 129.548C452.21 128.689 450.125 128.26 447.426 128.26C444.973 128.26 443.133 128.628 441.906 129.364C440.741 130.038 440.158 131.02 440.158 132.308C440.158 133.412 440.649 134.301 441.63 134.976C442.612 135.589 444.237 136.141 446.506 136.632L454.97 138.38C459.693 139.361 463.25 141.201 465.642 143.9C468.096 146.537 469.322 149.665 469.322 153.284C469.322 157.884 467.513 161.472 463.894 164.048C460.337 166.562 455.277 167.82 448.714 167.82ZM476.122 166.9V100.66H489.922V166.9H476.122ZM508.782 166.9V137.828C508.782 135.252 508.107 133.32 506.758 132.032C505.47 130.744 503.568 130.1 501.054 130.1C498.907 130.1 496.975 130.59 495.258 131.572C493.602 132.553 492.283 133.902 491.302 135.62C490.382 137.337 489.922 139.361 489.922 141.692L488.726 130.376C490.259 126.941 492.498 124.212 495.442 122.188C498.447 120.102 502.127 119.06 506.482 119.06C511.695 119.06 515.682 120.532 518.442 123.476C521.202 126.358 522.582 130.253 522.582 135.16V166.9H508.782Z" fill="black"/>
</svg>
