<svg viewBox="0 0 299 65" fill="none" xmlns="http://www.w3.org/2000/svg">
  <path d="M37 0L-7.86402e-07 64H74L37 0Z" fill="currentColor"/>
  <rect x="85.4075" y="0.745792" width="63.1539" height="63.1539" fill="currentColor"/>
  <circle cx="32.5" cy="32.5" r="32.5" transform="matrix(-1 0 0 1 225 0)" fill="currentColor"/>
  <path d="M273.369 3.19894C270.278 0.22006 265.39 0.267412 262.356 3.34319C259.275 6.46778 259.276 11.5336 262.356 14.6577L272.062 24.4992H244.89C240.533 24.4992 237 28.0812 237 32.4997C237 36.9183 240.532 40.5003 244.89 40.5003H272.062L262.356 50.3424C259.276 53.4665 259.275 58.5323 262.356 61.6569C265.438 64.7815 270.434 64.7806 273.515 61.6569L296.689 38.157C299.77 35.0326 299.77 29.9675 296.689 26.8431L273.514 3.34258L273.369 3.19894Z" fill="currentColor"/>
</svg>
